<svg width="2242" height="1107" viewBox="0 0 2242 1107" fill="none" xmlns="http://www.w3.org/2000/svg">
<g clip-path="url(#clip0_2_2)">
<path d="M1484.26 279.838C1554.62 335.185 1602.07 405.338 1620.6 481.428C1639.12 557.517 1627.91 636.125 1588.36 707.31C1548.82 778.496 1482.72 839.062 1398.43 881.35C1314.14 923.637 1215.45 945.747 1114.82 944.884C1014.2 944.02 916.168 920.221 833.126 876.497C750.084 832.773 685.761 771.088 648.292 699.241C610.822 627.395 601.888 548.614 622.62 472.862C643.352 397.109 692.818 327.787 764.764 273.662L929.489 403.242C890.858 432.304 864.297 469.526 853.165 510.202C842.033 550.877 846.83 593.178 866.949 631.755C887.068 670.333 921.606 703.455 966.196 726.932C1010.78 750.41 1063.42 763.188 1117.45 763.652C1171.48 764.116 1224.48 752.244 1269.74 729.538C1314.99 706.832 1350.48 674.311 1371.72 636.088C1392.95 597.865 1398.97 555.657 1389.02 514.801C1379.08 473.945 1353.6 436.276 1315.82 406.558L1484.26 279.838Z" fill="url(#paint0_linear_2_2)"/>
<path d="M942.611 415.207C908.465 442.068 885.321 476.048 876.048 512.935C866.776 549.821 871.783 587.99 890.45 622.707C909.116 657.425 940.62 687.162 981.054 708.233C1021.49 729.303 1069.07 740.778 1117.91 741.235C1166.74 741.692 1214.67 731.111 1255.76 710.804C1296.85 690.497 1329.29 661.358 1349.05 627C1368.8 592.643 1375.02 554.579 1366.91 517.53C1358.81 480.481 1336.75 446.077 1303.46 418.585L1218.95 479.144C1236.82 493.905 1248.67 512.378 1253.02 532.272C1257.37 552.165 1254.03 572.603 1243.42 591.052C1232.81 609.5 1215.4 625.146 1193.33 636.05C1171.27 646.954 1145.53 652.635 1119.31 652.39C1093.09 652.144 1067.54 645.983 1045.83 634.669C1024.12 623.356 1007.2 607.388 997.18 588.747C987.157 570.105 984.468 549.611 989.447 529.805C994.426 509.999 1006.85 491.753 1025.19 477.33L942.611 415.207Z" fill="url(#paint1_linear_2_2)"/>
<path d="M1198.22 498.042C1212.44 509.233 1222.04 523.419 1225.78 538.805C1229.53 554.191 1227.26 570.086 1219.27 584.481C1211.27 598.875 1197.9 611.122 1180.86 619.673C1163.82 628.224 1143.86 632.695 1123.51 632.521C1103.16 632.346 1083.34 627.534 1066.55 618.692C1049.76 609.851 1036.75 597.377 1029.17 582.849C1021.6 568.321 1019.79 552.391 1023.98 537.073C1028.18 521.755 1038.18 507.737 1052.73 496.793L1086.04 522.995C1078.22 528.872 1072.85 536.399 1070.6 544.623C1068.35 552.848 1069.32 561.402 1073.39 569.203C1077.46 577.004 1084.44 583.701 1093.46 588.449C1102.47 593.196 1113.12 595.78 1124.04 595.874C1134.97 595.967 1145.68 593.567 1154.84 588.975C1163.99 584.384 1171.16 577.808 1175.46 570.079C1179.75 562.35 1180.97 553.815 1178.96 545.554C1176.95 537.292 1171.79 529.675 1164.16 523.666L1198.22 498.042Z" fill="url(#paint2_linear_2_2)"/>
<path d="M1100.31 533.933C1095.32 537.857 1091.96 542.83 1090.64 548.225C1089.33 553.62 1090.13 559.193 1092.93 564.24C1095.73 569.287 1100.42 573.581 1106.4 576.579C1112.37 579.578 1119.37 581.145 1126.5 581.084C1133.64 581.023 1140.59 579.335 1146.48 576.235C1152.36 573.135 1156.92 568.762 1159.58 563.668C1162.24 558.574 1162.87 552.989 1161.4 547.618C1159.93 542.247 1156.42 537.332 1151.32 533.495L1139.64 542.682C1142.38 544.742 1144.27 547.381 1145.05 550.265C1145.84 553.149 1145.5 556.148 1144.08 558.883C1142.65 561.618 1140.2 563.967 1137.04 565.631C1133.88 567.296 1130.15 568.202 1126.32 568.235C1122.49 568.268 1118.73 567.426 1115.52 565.816C1112.31 564.206 1109.79 561.901 1108.29 559.191C1106.78 556.481 1106.36 553.488 1107.06 550.591C1107.77 547.695 1109.57 545.024 1112.25 542.917L1100.31 533.933Z" fill="url(#paint3_linear_2_2)"/>
<path d="M1133.85 546.272C1135.51 547.575 1136.62 549.226 1137.06 551.017C1137.5 552.807 1137.23 554.657 1136.3 556.332C1135.37 558.008 1133.82 559.433 1131.83 560.428C1129.85 561.423 1127.53 561.944 1125.16 561.923C1122.79 561.903 1120.48 561.343 1118.53 560.314C1116.57 559.285 1115.06 557.833 1114.18 556.143C1113.3 554.452 1113.09 552.598 1113.57 550.815C1114.06 549.032 1115.23 547.401 1116.92 546.127L1120.8 549.177C1119.89 549.861 1119.26 550.737 1119 551.694C1118.74 552.651 1118.85 553.646 1119.32 554.554C1119.8 555.462 1120.61 556.242 1121.66 556.794C1122.71 557.347 1123.95 557.647 1125.22 557.658C1126.49 557.669 1127.74 557.39 1128.8 556.856C1129.87 556.321 1130.7 555.556 1131.2 554.656C1131.7 553.757 1131.85 552.763 1131.61 551.802C1131.38 550.84 1130.78 549.954 1129.89 549.255L1133.85 546.272Z" fill="url(#paint4_linear_2_2)"/>
<path d="M1121.88 550.026C1121.3 550.479 1120.91 551.051 1120.75 551.667C1120.59 552.284 1120.67 552.919 1120.98 553.491C1121.29 554.063 1121.81 554.547 1122.49 554.882C1123.16 555.216 1123.96 555.387 1124.77 555.371C1125.58 555.355 1126.38 555.154 1127.05 554.794C1127.73 554.433 1128.26 553.929 1128.57 553.345C1128.89 552.76 1128.97 552.123 1128.81 551.512C1128.66 550.901 1128.27 550.345 1127.69 549.914L1126.34 550.976C1126.65 551.207 1126.86 551.506 1126.95 551.834C1127.03 552.162 1126.99 552.504 1126.82 552.818C1126.65 553.131 1126.36 553.402 1126 553.596C1125.64 553.79 1125.21 553.897 1124.77 553.906C1124.34 553.914 1123.91 553.823 1123.55 553.643C1123.19 553.464 1122.9 553.204 1122.74 552.896C1122.57 552.589 1122.53 552.248 1122.62 551.917C1122.7 551.586 1122.91 551.279 1123.22 551.036L1121.88 550.026Z" fill="url(#paint5_linear_2_2)"/>
<line y1="-0.1" x2="398.422" y2="-0.1" transform="matrix(0.758917 -0.651187 0.823194 0.56776 1124.78 538.899)" stroke="#6A4479" stroke-width="0.2"/>
<line y1="-0.1" x2="381.296" y2="-0.1" transform="matrix(0.686254 -0.727362 0.873119 0.487507 1124.78 538.899)" stroke="#6A4479" stroke-width="0.2"/>
<line y1="-0.1" x2="365.31" y2="-0.1" transform="matrix(0.588946 -0.808173 0.918247 0.396008 1124.78 538.899)" stroke="#6A4479" stroke-width="0.2"/>
<line y1="-0.1" x2="348.963" y2="-0.1" transform="matrix(0.466566 -0.884486 0.954569 0.297991 1124.78 538.899)" stroke="#6A4479" stroke-width="0.2"/>
<line y1="-0.1" x2="336.267" y2="-0.1" transform="matrix(0.328552 -0.944486 0.979461 0.201636 1124.78 538.899)" stroke="#6A4479" stroke-width="0.2"/>
<line y1="-0.1" x2="331.683" y2="-0.1" transform="matrix(0.175312 -0.984513 0.994493 0.104801 1124.78 538.899)" stroke="#6A4479" stroke-width="0.2"/>
<line x1="1124.68" y1="538.899" x2="1124.68" y2="212.353" stroke="#6A4479" stroke-width="0.2"/>
<line y1="-0.1" x2="330.713" y2="-0.1" transform="matrix(-0.158244 -0.9874 0.995533 -0.0944196 1124.78 538.899)" stroke="#6A4479" stroke-width="0.2"/>
<line y1="-0.1" x2="346.637" y2="-0.1" transform="matrix(-0.335498 -0.942041 0.978503 -0.206232 1124.78 538.899)" stroke="#6A4479" stroke-width="0.2"/>
<line y1="-0.1" x2="359.59" y2="-0.1" transform="matrix(-0.468948 -0.883226 0.954013 -0.299765 1124.78 538.899)" stroke="#6A4479" stroke-width="0.2"/>
<line y1="-0.1" x2="375.835" y2="-0.1" transform="matrix(-0.603396 -0.797442 0.912674 -0.408689 1124.78 538.899)" stroke="#6A4479" stroke-width="0.2"/>
<line y1="-0.1" x2="396.638" y2="-0.1" transform="matrix(-0.703691 -0.710506 0.86273 -0.505665 1124.78 538.899)" stroke="#6A4479" stroke-width="0.2"/>
<line y1="-0.1" x2="420.913" y2="-0.1" transform="matrix(-0.787439 -0.616392 0.797689 -0.603069 1124.78 538.899)" stroke="#6A4479" stroke-width="0.2"/>
</g>
<defs>
<linearGradient id="paint0_linear_2_2" x1="764.764" y1="273.662" x2="773.07" y2="1308.34" gradientUnits="userSpaceOnUse">
<stop stop-color="#3D6C3C"/>
<stop offset="0.333333" stop-color="#3B2F3E" stop-opacity="0.666667"/>
<stop offset="0.723958" stop-color="#434232" stop-opacity="0.276042"/>
<stop offset="1" stop-color="#7E7C39" stop-opacity="0.4"/>
</linearGradient>
<linearGradient id="paint1_linear_2_2" x1="1295.34" y1="412.179" x2="1037.47" y2="754.953" gradientUnits="userSpaceOnUse">
<stop stop-color="#527251"/>
<stop offset="0.333333" stop-color="#5C525F" stop-opacity="0.666667"/>
<stop offset="0.723958" stop-color="#4F4E42" stop-opacity="0.276042"/>
<stop offset="1" stop-color="#272723" stop-opacity="0.4"/>
</linearGradient>
<linearGradient id="paint2_linear_2_2" x1="1052.73" y1="496.793" x2="1159.09" y2="638.178" gradientUnits="userSpaceOnUse">
<stop stop-color="#525752"/>
<stop offset="0.333333" stop-color="#3B363D" stop-opacity="0.666667"/>
<stop offset="0.723958" stop-color="#3C3B34" stop-opacity="0.276042"/>
<stop offset="1" stop-color="#1E1E18" stop-opacity="0.4"/>
</linearGradient>
<linearGradient id="paint3_linear_2_2" x1="1151.32" y1="533.495" x2="1114.03" y2="583.068" gradientUnits="userSpaceOnUse">
<stop stop-color="#374636"/>
<stop offset="0.333333" stop-color="#3C303F" stop-opacity="0.666667"/>
<stop offset="0.723958" stop-color="#4D4C3C" stop-opacity="0.276042"/>
<stop offset="1" stop-color="#4F4E39" stop-opacity="0.4"/>
</linearGradient>
<linearGradient id="paint4_linear_2_2" x1="1116.92" y1="546.127" x2="1129.3" y2="562.582" gradientUnits="userSpaceOnUse">
<stop stop-color="#233823"/>
<stop offset="0.333333" stop-color="#39313A" stop-opacity="0.666667"/>
<stop offset="0.723958" stop-color="#35352A" stop-opacity="0.276042"/>
<stop offset="1" stop-color="#555549" stop-opacity="0.4"/>
</linearGradient>
<linearGradient id="paint5_linear_2_2" x1="1127.69" y1="549.914" x2="1123.38" y2="555.644" gradientUnits="userSpaceOnUse">
<stop stop-color="#424B41"/>
<stop offset="0.117108" stop-color="#29302A" stop-opacity="0.882892"/>
<stop offset="0.333333" stop-color="#29232B" stop-opacity="0.666667"/>
<stop offset="0.723958" stop-color="#565547" stop-opacity="0.276042"/>
<stop offset="1" stop-color="#5A593D" stop-opacity="0.4"/>
</linearGradient>
<clipPath id="clip0_2_2">
<rect width="2242" height="1107" fill="white"/>
</clipPath>
</defs>
</svg>
